<?xml version="1.0" standalone="no"?><svg xmlns="http://www.w3.org/2000/svg" viewBox="0 0 1440 320"><path fill="#ffffff" fill-opacity="1" d="M0,288L26.7,266.7C53.3,245,107,203,160,202.7C213.3,203,267,245,320,261.3C373.3,277,427,267,480,272C533.3,277,587,299,640,282.7C693.3,267,747,213,800,202.7C853.3,192,907,224,960,202.7C1013.3,181,1067,107,1120,112C1173.3,117,1227,203,1280,202.7C1333.3,203,1387,117,1413,74.7L1440,32L1440,320L1413.3,320C1386.7,320,1333,320,1280,320C1226.7,320,1173,320,1120,320C1066.7,320,1013,320,960,320C906.7,320,853,320,800,320C746.7,320,693,320,640,320C586.7,320,533,320,480,320C426.7,320,373,320,320,320C266.7,320,213,320,160,320C106.7,320,53,320,27,320L0,320Z"></path></svg>